<svg id="Layer_1" data-name="Layer 1" xmlns="http://www.w3.org/2000/svg" width="1063.48" height="61.6" viewBox="0 0 1063.48 61.6"><defs><style>.cls-1{fill:#e2c77a;}.cls-2{fill:#fff;}.cls-3{fill:none;stroke:#fff;stroke-linecap:round;stroke-linejoin:round;stroke-width:2px;}</style></defs><title>brian-and-theresa</title><path class="cls-1" d="M23.27,14.54a16.16,16.16,0,0,1,4.54.58,17.25,17.25,0,0,1,4,1.79A18.11,18.11,0,0,0,31,19.78q-0.3,1.49-.5,3.23a3.33,3.33,0,0,1-2.18.08,12.36,12.36,0,0,0,.06-3.49,4.2,4.2,0,0,0-.87-2.1,3.32,3.32,0,0,0-1.65-1,8.57,8.57,0,0,0-2.3-.28,10.71,10.71,0,0,0-4.66,1,11,11,0,0,0-3.57,2.68,13.79,13.79,0,0,0-2.42,4,18.29,18.29,0,0,0-1.21,4.88,15.89,15.89,0,0,0,.1,4.32,9.56,9.56,0,0,0,1.33,3.61,7.31,7.31,0,0,0,2.64,2.48,8.13,8.13,0,0,0,4,.93A14.2,14.2,0,0,0,24,39.45a17.49,17.49,0,0,0,3.83-1.71,2.37,2.37,0,0,1,.65,1.53,17.81,17.81,0,0,1-4.8,2.48,16.08,16.08,0,0,1-5,.79,12.93,12.93,0,0,1-5.41-1,9.71,9.71,0,0,1-3.73-2.9,10.78,10.78,0,0,1-2-4.32,15.55,15.55,0,0,1-.18-5.32,17.29,17.29,0,0,1,2.06-6.52,15.68,15.68,0,0,1,3.77-4.48,14.82,14.82,0,0,1,4.82-2.58A17.24,17.24,0,0,1,23.27,14.54Z"/><path class="cls-1" d="M41.14,23.33a6.65,6.65,0,0,1,3,.67,5.24,5.24,0,0,1,2.1,1.92,7.28,7.28,0,0,1,1,3,12.19,12.19,0,0,1-.18,3.83,14.66,14.66,0,0,1-1.31,4,12.23,12.23,0,0,1-2.18,3.09,9.23,9.23,0,0,1-2.86,2,8.23,8.23,0,0,1-3.37.71,6.57,6.57,0,0,1-3-.65,5.31,5.31,0,0,1-2.06-1.84,6.71,6.71,0,0,1-1-2.86,11.26,11.26,0,0,1,.18-3.69,16.88,16.88,0,0,1,1.35-4.17A12.45,12.45,0,0,1,35,26.11a9.39,9.39,0,0,1,2.82-2.06A7.67,7.67,0,0,1,41.14,23.33Zm-0.52,2a3.13,3.13,0,0,0-1.75.54A6.07,6.07,0,0,0,37.3,27.4,10.8,10.8,0,0,0,36,29.82,17.77,17.77,0,0,0,35.17,33a11.28,11.28,0,0,0,0,5.57,2.57,2.57,0,0,0,2.5,2.1,3.33,3.33,0,0,0,1.79-.54,5.89,5.89,0,0,0,1.59-1.53,11.13,11.13,0,0,0,1.29-2.36,15.91,15.91,0,0,0,.89-3.07,11.79,11.79,0,0,0-.06-5.67A2.64,2.64,0,0,0,40.61,25.31Z"/><path class="cls-1" d="M65,36q-0.32,1.37-.48,2.14a8.47,8.47,0,0,0-.18,1.13,0.46,0.46,0,0,0,.12.44,0.77,0.77,0,0,0,.38.08A2.37,2.37,0,0,0,66,39.4a5.51,5.51,0,0,0,1.15-.87,2.6,2.6,0,0,1,.73,1.29,12.54,12.54,0,0,1-2.44,2,4.25,4.25,0,0,1-2.2.67,2.88,2.88,0,0,1-1.78-.44,2,2,0,0,1-.71-1.29,6.37,6.37,0,0,1,.06-2.06q0.2-1.21.52-2.7l1.09-4.8a15.45,15.45,0,0,0,.42-2.52,5.34,5.34,0,0,0-.08-1.55,1.25,1.25,0,0,0-.48-0.79,1.42,1.42,0,0,0-.79-0.22,2.91,2.91,0,0,0-1.59.79,10.66,10.66,0,0,0-2,2.22A20.52,20.52,0,0,0,56,32.57a19.15,19.15,0,0,0-1.33,4.36l-1,5.24H50l2.22-11.74q0.24-1.41.32-2.2a2.13,2.13,0,0,0-.12-1.17,0.93,0.93,0,0,0-.75-0.46,10.94,10.94,0,0,0-1.51-.08q0-.44,0-0.83A1.45,1.45,0,0,1,50.37,25a8.3,8.3,0,0,0,1.23-.22q0.75-.18,1.55-0.42t1.53-.5a8.63,8.63,0,0,0,1.17-.5q1.21,0.4.85,2.62A22,22,0,0,1,56,28.84Q55.62,30,55.18,31h0l0.65-1.37a11.91,11.91,0,0,1,1.37-2.08,15.15,15.15,0,0,1,2-2.06,11.75,11.75,0,0,1,2.3-1.55,5,5,0,0,1,2.24-.6,3,3,0,0,1,1.31.32,2.55,2.55,0,0,1,1.11,1.17,5.66,5.66,0,0,1,.5,2.36,15,15,0,0,1-.5,3.89Z"/><path class="cls-1" d="M81.39,35A18.37,18.37,0,0,1,80,37.57,15.28,15.28,0,0,1,78.17,40a10.13,10.13,0,0,1-2.26,1.82,4.84,4.84,0,0,1-2.46.71,2.93,2.93,0,0,1-2.86-2q-0.85-2,0-6.49a16.73,16.73,0,0,1,1.49-4.3,13.13,13.13,0,0,1,2.44-3.37,11.15,11.15,0,0,1,3.19-2.22,8.82,8.82,0,0,1,3.73-.81,7.91,7.91,0,0,1,1.21.1,5.93,5.93,0,0,1,1.09.26q0.57,0,1.13-.12a3,3,0,0,0,.89-0.24,0.87,0.87,0,0,1,.48.6,4.62,4.62,0,0,1-.08,1.65l-3,17.06Q82.24,47.82,79.78,50a9,9,0,0,1-6.29,2.22,13.25,13.25,0,0,1-3.09-.34A5.72,5.72,0,0,1,68.24,51a9,9,0,0,0,.69-2.2,20.83,20.83,0,0,0,.32-2.4A3.09,3.09,0,0,1,71,46.08a7.14,7.14,0,0,0,.71,3.35,2.6,2.6,0,0,0,2.4,1,4,4,0,0,0,3.23-1.67,12.51,12.51,0,0,0,2-5.43L79.94,40a22.54,22.54,0,0,1,.56-2.32q0.4-1.39.93-2.72h0Zm1.53-9.2a6.85,6.85,0,0,0-2.46-.4,4.74,4.74,0,0,0-2.22.5,5.42,5.42,0,0,0-1.69,1.39,8.21,8.21,0,0,0-1.23,2.14,14.54,14.54,0,0,0-.79,2.74,14.41,14.41,0,0,0-.38,5.26q0.34,1.84,1.55,1.84a2.51,2.51,0,0,0,1.39-.73,10.62,10.62,0,0,0,1.82-2.1,22.22,22.22,0,0,0,1.86-3.35,22.7,22.7,0,0,0,1.47-4.48Z"/><path class="cls-1" d="M91,30.43q0.28-1.41.36-2.2a2.14,2.14,0,0,0-.12-1.17,0.92,0.92,0,0,0-.73-0.46,10.48,10.48,0,0,0-1.49-.08,7.81,7.81,0,0,1,0-.83A1.63,1.63,0,0,1,89.34,25a8.3,8.3,0,0,0,1.23-.22q0.75-.18,1.53-0.42t1.51-.5a8.68,8.68,0,0,0,1.17-.5q1.21,0.4.81,2.58a26.6,26.6,0,0,1-1.78,5.32H93.9l0.69-1.49A16.41,16.41,0,0,1,96,27.26a17.47,17.47,0,0,1,1.61-2,7.52,7.52,0,0,1,1.69-1.39,3.33,3.33,0,0,1,1.67-.5,4,4,0,0,1,1.29.18,3.16,3.16,0,0,1,1,.54,10.21,10.21,0,0,0-.73,2.24,17.43,17.43,0,0,0-.36,2.44,2.83,2.83,0,0,1-1.69.32q0-.89-0.12-1.43a3.54,3.54,0,0,0-.2-0.83,0.68,0.68,0,0,0-.28-0.36,0.9,0.9,0,0,0-.4-0.08,2,2,0,0,0-1.31.85,13.67,13.67,0,0,0-1.59,2.38A33,33,0,0,0,94.47,34a31.37,31.37,0,0,0-1.29,4.6l-0.69,3.59H88.78Z"/><path class="cls-1" d="M116.93,36.24q-0.24,1.17-.36,1.86a4,4,0,0,0-.08,1,0.63,0.63,0,0,0,.22.48,0.9,0.9,0,0,0,.5.12,2,2,0,0,0,.93-0.26,8.38,8.38,0,0,0,1.29-.95,2.51,2.51,0,0,1,.44.58,4.38,4.38,0,0,1,.28.67,10.4,10.4,0,0,1-2.2,1.94,4.24,4.24,0,0,1-2.28.81,2.63,2.63,0,0,1-2-.67,2.83,2.83,0,0,1-.75-1.63,6,6,0,0,1,.12-2.06,11,11,0,0,1,.6-1.94h0a16,16,0,0,1-1.37,2.24,15.13,15.13,0,0,1-1.75,2,9,9,0,0,1-2,1.47,4.65,4.65,0,0,1-2.2.56,2.93,2.93,0,0,1-2.86-2q-0.85-2,0-6.49a16.73,16.73,0,0,1,1.49-4.3,13.13,13.13,0,0,1,2.44-3.37,11.15,11.15,0,0,1,3.19-2.22,8.83,8.83,0,0,1,3.73-.81,7.53,7.53,0,0,1,1.19.1,6,6,0,0,1,1.07.26,9.91,9.91,0,0,0,1.25-.08,3.26,3.26,0,0,0,1-.28,1,1,0,0,1,.3.24,1,1,0,0,1,.18.56,5.85,5.85,0,0,1,0,1.13A17.92,17.92,0,0,1,119,27.2Zm-1.17-10.45a6.85,6.85,0,0,0-2.46-.4,4.74,4.74,0,0,0-2.22.5,5.41,5.41,0,0,0-1.69,1.39,8.18,8.18,0,0,0-1.23,2.14,14.54,14.54,0,0,0-.79,2.74,14.43,14.43,0,0,0-.38,5.26q0.34,1.84,1.55,1.84a2.5,2.5,0,0,0,1.39-.73,10.17,10.17,0,0,0,1.8-2.1,23.46,23.46,0,0,0,1.83-3.35,24.53,24.53,0,0,0,1.51-4.48Z"/><path class="cls-1" d="M128.23,34a22.9,22.9,0,0,0-.46,2.8,6.92,6.92,0,0,0,0,1.88,1.83,1.83,0,0,0,.5,1,1.23,1.23,0,0,0,.85.32,3,3,0,0,0,1.51-.5,5.65,5.65,0,0,0,1.47-1.31,1.7,1.7,0,0,1,.54.56,2.43,2.43,0,0,1,.3.73,8.91,8.91,0,0,1-1,1.07,7.77,7.77,0,0,1-1.29,1,8.36,8.36,0,0,1-1.49.71,4.69,4.69,0,0,1-1.59.28,3.2,3.2,0,0,1-3.33-2q-0.79-2,.22-6.31l1.9-8.35-1.47-.16a14.87,14.87,0,0,0-1.51-.08,2.71,2.71,0,0,1,.44-1.57h3l0.08-.4q0.44-1.86.71-3.29T128,18.13a13.34,13.34,0,0,0,1.71-.38,6.82,6.82,0,0,0,1.47-.58,0.91,0.91,0,0,1,.38.36,1.53,1.53,0,0,1,.14.75,9.13,9.13,0,0,1-.16,1.43q-0.16.93-.52,2.42l-0.44,2h3.75a5.74,5.74,0,0,1-.06.85,2.43,2.43,0,0,1-.22.73q-1.09,0-2.1.08t-1.82.2Z"/><path class="cls-1" d="M146.91,36.08a15.64,15.64,0,0,1-1.27,2.14,14,14,0,0,1-1.79,2.1,10.25,10.25,0,0,1-2.14,1.59,4.7,4.7,0,0,1-2.3.63,2.39,2.39,0,0,1-2.06-.87,4.43,4.43,0,0,1-.79-2.24,12.44,12.44,0,0,1,.1-3,33.42,33.42,0,0,1,.65-3.29q0.6-2.42.87-3.75a5.64,5.64,0,0,0,.14-2,0.84,0.84,0,0,0-.65-0.75,7.27,7.27,0,0,0-1.53-.12,2.5,2.5,0,0,1,0-.79,1.68,1.68,0,0,1,.24-0.75,8.56,8.56,0,0,0,1.19-.22q0.75-.18,1.55-0.42t1.51-.5a6.91,6.91,0,0,0,1.11-.5,2.27,2.27,0,0,1,.67.6,2.27,2.27,0,0,1,.16,1.29,20.31,20.31,0,0,1-.48,2.86q-0.42,1.9-1.23,5.28-1.53,6.17.69,6.17a2.87,2.87,0,0,0,1.49-.67,9.21,9.21,0,0,0,1.94-2,18.26,18.26,0,0,0,1.92-3.43,22.25,22.25,0,0,0,1.43-4.84l0.93-4.88h3.67l-2,10q-0.44,2.14-.65,3.35T150,38.86a1,1,0,0,0,.12.75,0.79,0.79,0,0,0,.52.14,1.54,1.54,0,0,0,.87-0.28,8,8,0,0,0,1.11-1,2,2,0,0,1,.46.58,4.57,4.57,0,0,1,.3.71,10.37,10.37,0,0,1-2.2,1.94,4.28,4.28,0,0,1-2.32.81,2.33,2.33,0,0,1-2.4-1.25,5.51,5.51,0,0,1-.14-3.27,7.47,7.47,0,0,1,.65-1.94h-0.08Z"/><path class="cls-1" d="M160.94,33.13q-0.44,2.14-.61,3.45a14.09,14.09,0,0,0-.14,2,1.48,1.48,0,0,0,.22.91,0.67,0.67,0,0,0,.52.22,1.89,1.89,0,0,0,.89-0.26,6.05,6.05,0,0,0,1.17-.91,2.54,2.54,0,0,1,.73,1.21,9.85,9.85,0,0,1-2.2,2,4.33,4.33,0,0,1-2.36.81q-2.86,0-2.74-3.27,0-.48,0-1t0.16-1.35q0.12-.83.34-2.06t0.58-3.15q0.36-1.92.89-4.62t1.29-6.45a18.69,18.69,0,0,0,.34-2.16,2.34,2.34,0,0,0-.14-1.19,0.92,0.92,0,0,0-.75-0.48,11,11,0,0,0-1.51-.08c0-.3,0-0.57,0-0.83a1.44,1.44,0,0,1,.22-0.71,8.38,8.38,0,0,0,1.23-.22q0.75-.18,1.53-0.42t1.51-.5a8.51,8.51,0,0,0,1.17-.5q1.21,0.4.85,2.58-0.81,4.6-1.63,8.83T160.94,33.13Z"/><path class="cls-1" d="M179.9,36.24q-0.24,1.17-.36,1.86a4,4,0,0,0-.08,1,0.63,0.63,0,0,0,.22.48,0.9,0.9,0,0,0,.5.12,2,2,0,0,0,.93-0.26,8.38,8.38,0,0,0,1.29-.95,2.51,2.51,0,0,1,.44.58,4.38,4.38,0,0,1,.28.67,10.4,10.4,0,0,1-2.2,1.94,4.24,4.24,0,0,1-2.28.81,2.63,2.63,0,0,1-2-.67,2.83,2.83,0,0,1-.75-1.63,6,6,0,0,1,.12-2.06,11,11,0,0,1,.6-1.94h0a16,16,0,0,1-1.37,2.24,15.13,15.13,0,0,1-1.75,2,9,9,0,0,1-2,1.47,4.65,4.65,0,0,1-2.2.56,2.93,2.93,0,0,1-2.86-2q-0.85-2,0-6.49a16.73,16.73,0,0,1,1.49-4.3,13.13,13.13,0,0,1,2.44-3.37,11.15,11.15,0,0,1,3.19-2.22,8.83,8.83,0,0,1,3.73-.81,7.53,7.53,0,0,1,1.19.1,6,6,0,0,1,1.07.26,9.91,9.91,0,0,0,1.25-.08,3.26,3.26,0,0,0,1-.28,1,1,0,0,1,.3.24,1,1,0,0,1,.18.56,5.85,5.85,0,0,1,0,1.13,17.92,17.92,0,0,1-.36,1.94Zm-1.17-10.45a6.85,6.85,0,0,0-2.46-.4,4.74,4.74,0,0,0-2.22.5,5.41,5.41,0,0,0-1.69,1.39,8.18,8.18,0,0,0-1.23,2.14,14.54,14.54,0,0,0-.79,2.74,14.43,14.43,0,0,0-.38,5.26q0.34,1.84,1.55,1.84a2.5,2.5,0,0,0,1.39-.73,10.17,10.17,0,0,0,1.8-2.1,23.46,23.46,0,0,0,1.83-3.35A24.53,24.53,0,0,0,178,28.61Z"/><path class="cls-1" d="M191.2,34a22.9,22.9,0,0,0-.46,2.8,6.92,6.92,0,0,0,0,1.88,1.83,1.83,0,0,0,.5,1,1.23,1.23,0,0,0,.85.32,3,3,0,0,0,1.51-.5,5.65,5.65,0,0,0,1.47-1.31,1.7,1.7,0,0,1,.54.56,2.43,2.43,0,0,1,.3.73,8.91,8.91,0,0,1-1,1.07,7.77,7.77,0,0,1-1.29,1,8.36,8.36,0,0,1-1.49.71,4.69,4.69,0,0,1-1.59.28,3.2,3.2,0,0,1-3.33-2q-0.79-2,.22-6.31l1.9-8.35-1.47-.16a14.87,14.87,0,0,0-1.51-.08,2.71,2.71,0,0,1,.44-1.57h3l0.08-.4q0.44-1.86.71-3.29T191,18.13a13.34,13.34,0,0,0,1.71-.38,6.82,6.82,0,0,0,1.47-.58,0.91,0.91,0,0,1,.38.36,1.53,1.53,0,0,1,.14.75,9.13,9.13,0,0,1-.16,1.43q-0.16.93-.52,2.42l-0.44,2h3.75a5.74,5.74,0,0,1-.06.85,2.43,2.43,0,0,1-.22.73q-1.09,0-2.1.08t-1.82.2Z"/><path class="cls-1" d="M200.68,30.91q0.44-1.53.63-2.4a2.53,2.53,0,0,0,0-1.31,0.89,0.89,0,0,0-.71-0.56,7.57,7.57,0,0,0-1.55-.12,3.4,3.4,0,0,1,.24-1.53,6.1,6.1,0,0,0,1.13-.22q0.64-.18,1.31-0.42t1.25-.5a6.55,6.55,0,0,0,.95-0.5,2.37,2.37,0,0,1,1.51,1.75,8.64,8.64,0,0,1-.42,3.73l-2.22,7.79q-0.28,1-.4,1.59a3.25,3.25,0,0,0-.08.95,0.59,0.59,0,0,0,.22.44,0.82,0.82,0,0,0,.46.12,2.13,2.13,0,0,0,.95-0.28,4.81,4.81,0,0,0,1.15-.89,1.74,1.74,0,0,1,.73,1.29,10.89,10.89,0,0,1-2.32,2,4.34,4.34,0,0,1-2.28.71,2.26,2.26,0,0,1-2.48-1.59,7.94,7.94,0,0,1,.26-4.22Zm5.2-16.86a1.72,1.72,0,0,1,1.49.67,2.18,2.18,0,0,1,.24,1.79,3,3,0,0,1-.93,1.71,2.48,2.48,0,0,1-1.73.67,1.62,1.62,0,0,1-1.43-.67,2.18,2.18,0,0,1-.26-1.71,3.29,3.29,0,0,1,1-1.79A2.38,2.38,0,0,1,205.88,14.05Z"/><path class="cls-1" d="M218.39,23.33a6.65,6.65,0,0,1,3,.67,5.24,5.24,0,0,1,2.1,1.92,7.28,7.28,0,0,1,1,3,12.19,12.19,0,0,1-.18,3.83,14.66,14.66,0,0,1-1.31,4,12.23,12.23,0,0,1-2.18,3.09,9.23,9.23,0,0,1-2.86,2,8.23,8.23,0,0,1-3.37.71,6.57,6.57,0,0,1-3-.65,5.31,5.31,0,0,1-2.06-1.84,6.71,6.71,0,0,1-1-2.86,11.26,11.26,0,0,1,.18-3.69,16.88,16.88,0,0,1,1.35-4.17,12.45,12.45,0,0,1,2.18-3.21,9.39,9.39,0,0,1,2.82-2.06A7.67,7.67,0,0,1,218.39,23.33Zm-0.52,2a3.13,3.13,0,0,0-1.75.54,6.07,6.07,0,0,0-1.55,1.55,10.8,10.8,0,0,0-1.27,2.42,17.77,17.77,0,0,0-.87,3.15,11.28,11.28,0,0,0,0,5.57,2.57,2.57,0,0,0,2.5,2.1,3.33,3.33,0,0,0,1.79-.54,5.89,5.89,0,0,0,1.59-1.53,11.13,11.13,0,0,0,1.29-2.36,15.91,15.91,0,0,0,.89-3.07,11.79,11.79,0,0,0-.06-5.67A2.64,2.64,0,0,0,217.86,25.31Z"/><path class="cls-1" d="M242.27,36q-0.32,1.37-.48,2.14a8.15,8.15,0,0,0-.18,1.13,0.46,0.46,0,0,0,.12.44,0.77,0.77,0,0,0,.38.08,2.36,2.36,0,0,0,1.11-.38,5.49,5.49,0,0,0,1.15-.87,2.6,2.6,0,0,1,.73,1.29,12.56,12.56,0,0,1-2.44,2,4.25,4.25,0,0,1-2.2.67,2.87,2.87,0,0,1-1.77-.44A2,2,0,0,1,238,40.8a6.34,6.34,0,0,1,.06-2.06q0.2-1.21.52-2.7l1.09-4.8a15.47,15.47,0,0,0,.42-2.52,5.33,5.33,0,0,0-.08-1.55,1.25,1.25,0,0,0-.48-0.79,1.42,1.42,0,0,0-.79-0.22,2.91,2.91,0,0,0-1.59.79,10.66,10.66,0,0,0-2,2.22,20.52,20.52,0,0,0-1.9,3.41,19.2,19.2,0,0,0-1.33,4.36l-1,5.24h-3.67l2.22-11.74q0.24-1.41.32-2.2a2.14,2.14,0,0,0-.12-1.17,0.93,0.93,0,0,0-.75-0.46,10.94,10.94,0,0,0-1.51-.08c0-.3,0-0.57,0-0.83a1.46,1.46,0,0,1,.22-0.71,8.28,8.28,0,0,0,1.23-.22c0.5-.12,1-0.26,1.55-0.42s1-.33,1.53-0.5a8.57,8.57,0,0,0,1.17-.5q1.21,0.4.85,2.62a22.3,22.3,0,0,1-.71,2.88Q232.87,30,232.43,31h0l0.65-1.37a12,12,0,0,1,1.37-2.08,15.09,15.09,0,0,1,2-2.06,11.77,11.77,0,0,1,2.3-1.55,5,5,0,0,1,2.24-.6,3,3,0,0,1,1.31.32,2.54,2.54,0,0,1,1.11,1.17,5.66,5.66,0,0,1,.5,2.36,15,15,0,0,1-.5,3.89Z"/><path class="cls-1" d="M253.2,40.8a3,3,0,0,0,1.55-.42,1.81,1.81,0,0,0,.87-1.27,2.44,2.44,0,0,0-.28-1.67,7.33,7.33,0,0,0-1.21-1.55q-0.77-.77-1.67-1.59a12.29,12.29,0,0,1-1.63-1.82,8,8,0,0,1-1.13-2.18,5.37,5.37,0,0,1-.12-2.72,4.68,4.68,0,0,1,1.9-3.15,6.89,6.89,0,0,1,4.07-1.09,9.59,9.59,0,0,1,2.72.42A5.59,5.59,0,0,1,260.58,25,7.66,7.66,0,0,0,260,26.9a17.82,17.82,0,0,0-.26,2.08,2.83,2.83,0,0,1-1.69.32,5.2,5.2,0,0,0-1-3.07,3,3,0,0,0-2.5-1.13,2.34,2.34,0,0,0-1.53.46,1.88,1.88,0,0,0-.69,1.15,2.24,2.24,0,0,0,.28,1.71A7.36,7.36,0,0,0,253.89,30q0.81,0.75,1.75,1.55a11.82,11.82,0,0,1,1.69,1.77,7.41,7.41,0,0,1,1.15,2.16,5.39,5.39,0,0,1,.12,2.72,4.94,4.94,0,0,1-2,3.23,7.12,7.12,0,0,1-4.24,1.13,8,8,0,0,1-3.17-.63,6.18,6.18,0,0,1-2.36-1.67,7.55,7.55,0,0,0,.63-2,21.3,21.3,0,0,0,.26-2.16,2.83,2.83,0,0,1,1.69-.32,5.63,5.63,0,0,0,.24,1.92,5.33,5.33,0,0,0,.79,1.59,4,4,0,0,0,1.19,1.09A3,3,0,0,0,253.2,40.8Z"/><path class="cls-1" d="M274.63,19.82a7.72,7.72,0,0,0,.12-1.63,1.58,1.58,0,0,0-.34-1,1.65,1.65,0,0,0-.85-0.48,9.23,9.23,0,0,0-1.31-.22c-0.05-.3-0.09-0.58-0.12-0.85a3.35,3.35,0,0,1,0-.89q1.41,0.08,2.38.1l2.06,0q1.45,0,2.91-.06t2.82-.06q4.24,0,6.23,1.55t1.35,5.18a6.82,6.82,0,0,1-2.32,3.89,8.52,8.52,0,0,1-4.58,2q3.87,0.2,5.59,2.14t0.95,5.77a7.74,7.74,0,0,1-3.43,5,12.84,12.84,0,0,1-7.3,1.88h-2.54l-2.82,0-2.84,0-2.6.06a5.37,5.37,0,0,1,.32-1.73,6.49,6.49,0,0,0,1.49-.34,2.16,2.16,0,0,0,.93-0.69,3.37,3.37,0,0,0,.56-1.21q0.2-.75.4-1.92Zm0.85,17a9.49,9.49,0,0,0-.22,2,1.68,1.68,0,0,0,.36,1.11,1.65,1.65,0,0,0,1,.48,12.62,12.62,0,0,0,1.77.1,7.24,7.24,0,0,0,4.46-1.37,5.76,5.76,0,0,0,2.28-3.59q0.73-3.63-1-5.16t-6.33-1.53h-1Zm2.86-9.8a8.28,8.28,0,0,0,5.1-1.39,5.87,5.87,0,0,0,2.28-3.69q0.52-2.74-.85-4.07a5.64,5.64,0,0,0-4.08-1.33q-0.4,0-.85,0a5.57,5.57,0,0,0-1,.2L277.17,27h1.17Z"/><path class="cls-1" d="M294.4,30.43q0.28-1.41.36-2.2a2.14,2.14,0,0,0-.12-1.17,0.92,0.92,0,0,0-.73-0.46,10.48,10.48,0,0,0-1.49-.08,8.08,8.08,0,0,1,0-.83A1.63,1.63,0,0,1,292.7,25a8.28,8.28,0,0,0,1.23-.22q0.75-.18,1.53-0.42t1.51-.5a8.63,8.63,0,0,0,1.17-.5q1.21,0.4.81,2.58a26.6,26.6,0,0,1-1.78,5.32h0.08l0.69-1.49a16.41,16.41,0,0,1,1.39-2.48,17.37,17.37,0,0,1,1.61-2,7.48,7.48,0,0,1,1.69-1.39,3.33,3.33,0,0,1,1.67-.5,4,4,0,0,1,1.29.18,3.16,3.16,0,0,1,1,.54,10.16,10.16,0,0,0-.73,2.24,17.58,17.58,0,0,0-.36,2.44,2.83,2.83,0,0,1-1.69.32q0-.89-0.12-1.43a3.54,3.54,0,0,0-.2-0.83,0.68,0.68,0,0,0-.28-0.36,0.9,0.9,0,0,0-.4-0.08,2,2,0,0,0-1.31.85,13.61,13.61,0,0,0-1.59,2.38,33,33,0,0,0-2.06,4.4,31.37,31.37,0,0,0-1.29,4.6l-0.69,3.59h-3.71Z"/><path class="cls-1" d="M308.84,30.91q0.44-1.53.63-2.4a2.54,2.54,0,0,0,0-1.31,0.89,0.89,0,0,0-.71-0.56,7.58,7.58,0,0,0-1.55-.12,3.42,3.42,0,0,1,.24-1.53,6.09,6.09,0,0,0,1.13-.22q0.64-.18,1.31-0.42c0.44-.16.86-0.33,1.25-0.5a6.62,6.62,0,0,0,.95-0.5,2.37,2.37,0,0,1,1.51,1.75,8.66,8.66,0,0,1-.42,3.73L311,36.6q-0.28,1-.4,1.59a3.29,3.29,0,0,0-.08.95,0.59,0.59,0,0,0,.22.44,0.82,0.82,0,0,0,.46.12,2.13,2.13,0,0,0,.95-0.28,4.83,4.83,0,0,0,1.15-.89,1.74,1.74,0,0,1,.73,1.29,10.87,10.87,0,0,1-2.32,2,4.34,4.34,0,0,1-2.28.71,2.26,2.26,0,0,1-2.48-1.59,7.94,7.94,0,0,1,.26-4.22ZM314,14.05a1.72,1.72,0,0,1,1.49.67,2.18,2.18,0,0,1,.24,1.79,3,3,0,0,1-.93,1.71,2.48,2.48,0,0,1-1.74.67,1.62,1.62,0,0,1-1.43-.67,2.18,2.18,0,0,1-.26-1.71,3.3,3.3,0,0,1,1-1.79A2.38,2.38,0,0,1,314,14.05Z"/><path class="cls-1" d="M330.26,36.24q-0.24,1.17-.36,1.86a4,4,0,0,0-.08,1,0.63,0.63,0,0,0,.22.48,0.9,0.9,0,0,0,.5.12,1.94,1.94,0,0,0,.93-0.26,8.29,8.29,0,0,0,1.29-.95,2.51,2.51,0,0,1,.44.58,4.48,4.48,0,0,1,.28.67,10.4,10.4,0,0,1-2.2,1.94,4.24,4.24,0,0,1-2.28.81,2.63,2.63,0,0,1-2-.67,2.83,2.83,0,0,1-.75-1.63,6,6,0,0,1,.12-2.06,10.94,10.94,0,0,1,.6-1.94h0a15.93,15.93,0,0,1-1.37,2.24,15.06,15.06,0,0,1-1.75,2,9,9,0,0,1-2,1.47,4.66,4.66,0,0,1-2.2.56,2.93,2.93,0,0,1-2.86-2q-0.85-2,0-6.49a16.73,16.73,0,0,1,1.49-4.3,13.13,13.13,0,0,1,2.44-3.37,11.15,11.15,0,0,1,3.19-2.22,8.83,8.83,0,0,1,3.73-.81,7.54,7.54,0,0,1,1.19.1,6,6,0,0,1,1.07.26,9.93,9.93,0,0,0,1.25-.08,3.26,3.26,0,0,0,1-.28,1,1,0,0,1,.3.24,1,1,0,0,1,.18.56,5.79,5.79,0,0,1,0,1.13,17.64,17.64,0,0,1-.36,1.94Zm-1.17-10.45a6.85,6.85,0,0,0-2.46-.4,4.74,4.74,0,0,0-2.22.5,5.42,5.42,0,0,0-1.69,1.39,8.18,8.18,0,0,0-1.23,2.14,14.47,14.47,0,0,0-.79,2.74,14.39,14.39,0,0,0-.38,5.26q0.34,1.84,1.55,1.84a2.5,2.5,0,0,0,1.39-.73,10.14,10.14,0,0,0,1.79-2.1,23.45,23.45,0,0,0,1.84-3.35,24.53,24.53,0,0,0,1.51-4.48Z"/><path class="cls-1" d="M351.56,36q-0.32,1.37-.48,2.14a8.47,8.47,0,0,0-.18,1.13,0.46,0.46,0,0,0,.12.44,0.77,0.77,0,0,0,.38.08,2.36,2.36,0,0,0,1.11-.38,5.49,5.49,0,0,0,1.15-.87,2.61,2.61,0,0,1,.73,1.29,12.54,12.54,0,0,1-2.44,2,4.25,4.25,0,0,1-2.2.67,2.87,2.87,0,0,1-1.77-.44,2,2,0,0,1-.71-1.29,6.34,6.34,0,0,1,.06-2.06q0.2-1.21.52-2.7l1.09-4.8a15.57,15.57,0,0,0,.42-2.52,5.37,5.37,0,0,0-.08-1.55,1.25,1.25,0,0,0-.48-0.79,1.42,1.42,0,0,0-.79-0.22,2.91,2.91,0,0,0-1.59.79,10.69,10.69,0,0,0-2,2.22,20.52,20.52,0,0,0-1.9,3.41,19.2,19.2,0,0,0-1.33,4.36l-1,5.24h-3.67l2.22-11.74q0.24-1.41.32-2.2a2.15,2.15,0,0,0-.12-1.17,0.94,0.94,0,0,0-.75-0.46,10.93,10.93,0,0,0-1.51-.08q0-.44,0-0.83a1.46,1.46,0,0,1,.22-0.71,8.28,8.28,0,0,0,1.23-.22q0.75-.18,1.55-0.42t1.53-.5a8.57,8.57,0,0,0,1.17-.5q1.21,0.4.85,2.62a22.3,22.3,0,0,1-.71,2.88Q342.16,30,341.72,31h0l0.65-1.37a11.92,11.92,0,0,1,1.37-2.08,15.14,15.14,0,0,1,2-2.06,11.75,11.75,0,0,1,2.3-1.55,5,5,0,0,1,2.24-.6,3,3,0,0,1,1.31.32,2.55,2.55,0,0,1,1.11,1.17,5.65,5.65,0,0,1,.5,2.36,15,15,0,0,1-.5,3.89Z"/><path class="cls-1" d="M382.89,39.36a2.17,2.17,0,0,1,.89,1,4.85,4.85,0,0,1-1.39,1.56,3.26,3.26,0,0,1-1.93.57,4.84,4.84,0,0,1-.8-0.06,2.94,2.94,0,0,1-.78-0.25,4.67,4.67,0,0,1-.86-0.56,10.14,10.14,0,0,1-1-1A14.32,14.32,0,0,1,373.85,42a11.32,11.32,0,0,1-3.24.48,8.93,8.93,0,0,1-3.46-.57,5.29,5.29,0,0,1-2.1-1.5,4.3,4.3,0,0,1-.92-2.14,8.1,8.1,0,0,1,.8-4.72,8.17,8.17,0,0,1,1.24-1.75,9.59,9.59,0,0,1,1.58-1.35q0.86-.59,1.79-1.1a10.73,10.73,0,0,1-.89-3.17,10.59,10.59,0,0,1,.1-2.73,4.75,4.75,0,0,1,.53-1.5,4.31,4.31,0,0,1,1.12-1.31,6,6,0,0,1,1.75-.94,7.32,7.32,0,0,1,2.44-.37,6.09,6.09,0,0,1,2.14.33,3.76,3.76,0,0,1,1.44.91,3,3,0,0,1,.73,1.31,3.38,3.38,0,0,1,0,1.53,6.06,6.06,0,0,1-.84,2.2,7,7,0,0,1-1.4,1.56,9.52,9.52,0,0,1-1.8,1.16q-1,.49-2,1,0.48,0.89,1.13,1.93t1.48,2.31q1,1.47,1.71,2.52t1.32,1.79A9.92,9.92,0,0,0,379.75,36,7.22,7.22,0,0,0,380.5,34a7.57,7.57,0,0,0,.16-2,2.91,2.91,0,0,0-.35-1.26,1.62,1.62,0,0,0-.8-0.69,3.59,3.59,0,0,0-1.18-.24,2.19,2.19,0,0,1-.19-1.18,6.6,6.6,0,0,0,.89-0.21q0.48-.14.94-0.33a9.57,9.57,0,0,0,.88-0.41,3.66,3.66,0,0,0,.67-0.45A2.54,2.54,0,0,1,383.19,29a7.41,7.41,0,0,1,0,3.24,10.48,10.48,0,0,1-1.36,3.6,13.31,13.31,0,0,1-2.44,3,5.22,5.22,0,0,0,1.23,1.07,1.86,1.86,0,0,0,.84.24,1.75,1.75,0,0,0,.73-0.16A2.25,2.25,0,0,0,382.89,39.36Zm-11.7,1.5a10.28,10.28,0,0,0,4.94-1.24q-0.64-.8-1.42-1.87t-1.8-2.54q-0.89-1.31-1.56-2.42t-1.18-2.07a8.6,8.6,0,0,0-2.09,1.93,6.6,6.6,0,0,0-1.2,2.95,5.47,5.47,0,0,0,0,2,4.06,4.06,0,0,0,.73,1.67,3.72,3.72,0,0,0,1.43,1.13A5,5,0,0,0,371.19,40.86Zm0.1-17.51a5.93,5.93,0,0,0,0,1.9,9.82,9.82,0,0,0,.91,2.66,13.39,13.39,0,0,0,2.58-1.8,4.6,4.6,0,0,0,1.44-2.6,2.59,2.59,0,0,0-.3-2.12,2.11,2.11,0,0,0-1.74-.69,2.6,2.6,0,0,0-1.95.75A3.44,3.44,0,0,0,371.28,23.35Z"/><path class="cls-1" d="M402.85,16.47a5.75,5.75,0,0,0-1.9.28,3.76,3.76,0,0,0-1.43.91,5.71,5.71,0,0,0-1.09,1.59,19,19,0,0,0-.91,2.34,5.34,5.34,0,0,1-1.09-.1,1.45,1.45,0,0,1-.81-0.46q0.2-.64.42-1.43t0.4-1.61q0.18-.83.34-1.65t0.28-1.55q1.69,0.08,4.4.1l5.73,0,6,0q2.8,0,4.5-.1-0.24,1.41-.38,3t-0.14,3.33a2.61,2.61,0,0,1-.91.3,5.17,5.17,0,0,1-1,0,12.91,12.91,0,0,0-.18-2.34,3.51,3.51,0,0,0-.65-1.55,2.61,2.61,0,0,0-1.27-.85,6.8,6.8,0,0,0-2.06-.26h-2l-3.63,20.78a7.88,7.88,0,0,0-.16,1.43,1.5,1.5,0,0,0,.28.95,1.93,1.93,0,0,0,.89.58,7.55,7.55,0,0,0,1.69.34,4.7,4.7,0,0,1,.08,1.73q-1.29-.08-2.62-0.1l-2.54,0-2.76,0q-1.43,0-2.52.1a5.12,5.12,0,0,1,.28-1.77,9.46,9.46,0,0,0,1.61-.32,2.35,2.35,0,0,0,1-.6,2.82,2.82,0,0,0,.61-1.07,14.41,14.41,0,0,0,.42-1.67l3.55-20.37h-2.38Z"/><path class="cls-1" d="M431,36q-0.32,1.37-.48,2.14a8.47,8.47,0,0,0-.18,1.13,0.46,0.46,0,0,0,.12.44,0.77,0.77,0,0,0,.38.08A2.36,2.36,0,0,0,432,39.4a5.5,5.5,0,0,0,1.15-.87,2.6,2.6,0,0,1,.73,1.29,12.54,12.54,0,0,1-2.44,2,4.25,4.25,0,0,1-2.2.67,2.88,2.88,0,0,1-1.78-.44,2,2,0,0,1-.71-1.29,6.37,6.37,0,0,1,.06-2.06q0.2-1.21.52-2.7l1.09-4.8a15.45,15.45,0,0,0,.42-2.52,5.34,5.34,0,0,0-.08-1.55,1.25,1.25,0,0,0-.48-0.79,1.42,1.42,0,0,0-.79-0.22,2.91,2.91,0,0,0-1.59.79,11.09,11.09,0,0,0-2,2.22,19.59,19.59,0,0,0-1.92,3.41,17.84,17.84,0,0,0-1.29,4.36l-0.93,5.24H416l3.79-21.54q0.24-1.41.32-2.2a2.14,2.14,0,0,0-.12-1.17,0.94,0.94,0,0,0-.75-0.46,11,11,0,0,0-1.51-.08c0-.3,0-0.57,0-0.83a1.46,1.46,0,0,1,.22-0.71,8.35,8.35,0,0,0,1.23-.22q0.75-.18,1.53-0.42t1.51-.5a8.51,8.51,0,0,0,1.17-.5q1.21,0.4.85,2.58-0.61,3.35-1,5.55t-0.77,3.83q-0.36,1.63-.77,3t-1,3.23h0l1-2.14a11.91,11.91,0,0,1,1.37-2.08,15.15,15.15,0,0,1,2-2.06,11.75,11.75,0,0,1,2.3-1.55,5,5,0,0,1,2.24-.6,3,3,0,0,1,1.31.32,2.55,2.55,0,0,1,1.11,1.17,5.66,5.66,0,0,1,.5,2.36,15,15,0,0,1-.5,3.89Z"/><path class="cls-1" d="M445.77,23.33a4.7,4.7,0,0,1,2,.38,3,3,0,0,1,1.23,1,3.25,3.25,0,0,1,.52,1.43,5.35,5.35,0,0,1-.06,1.65,4.55,4.55,0,0,1-1.25,2.3,10.44,10.44,0,0,1-2.34,1.81,13.13,13.13,0,0,1-2.82,1.21,10.9,10.9,0,0,1-2.74.48,15.56,15.56,0,0,0-.1,2.1,7.43,7.43,0,0,0,.26,1.9,3.09,3.09,0,0,0,.77,1.37,2,2,0,0,0,1.45.52,4.74,4.74,0,0,0,2-.54,6.12,6.12,0,0,0,2-1.59,2.32,2.32,0,0,1,.85,1.17A12.19,12.19,0,0,1,446.23,40a11.23,11.23,0,0,1-1.69,1.29,9.56,9.56,0,0,1-1.88.91,5.76,5.76,0,0,1-1.94.34,3.89,3.89,0,0,1-2.64-.83,4.53,4.53,0,0,1-1.35-2.16,9.13,9.13,0,0,1-.34-3,21.33,21.33,0,0,1,.38-3.31,15.11,15.11,0,0,1,1.41-4.2,13.28,13.28,0,0,1,2.2-3.13A9.06,9.06,0,0,1,443,24,6.42,6.42,0,0,1,445.77,23.33Zm-5.28,8.79a8.87,8.87,0,0,0,2-.3,6.65,6.65,0,0,0,1.75-.75,4.78,4.78,0,0,0,1.31-1.17,3.62,3.62,0,0,0,.69-1.57,4,4,0,0,0,0-1,2.37,2.37,0,0,0-.26-0.91,1.87,1.87,0,0,0-.6-0.69,1.65,1.65,0,0,0-.95-0.26A2.9,2.9,0,0,0,442.2,27a10.67,10.67,0,0,0-1.55,4.2Z"/><path class="cls-1" d="M453.47,30.43q0.28-1.41.36-2.2a2.14,2.14,0,0,0-.12-1.17A0.92,0.92,0,0,0,453,26.6a10.48,10.48,0,0,0-1.49-.08,8.08,8.08,0,0,1,0-.83,1.63,1.63,0,0,1,.24-0.71,8.28,8.28,0,0,0,1.23-.22q0.75-.18,1.53-0.42t1.51-.5a8.63,8.63,0,0,0,1.17-.5q1.21,0.4.81,2.58a26.6,26.6,0,0,1-1.78,5.32h0.08L457,29.74a16.41,16.41,0,0,1,1.39-2.48,17.37,17.37,0,0,1,1.61-2,7.48,7.48,0,0,1,1.69-1.39,3.33,3.33,0,0,1,1.67-.5,4,4,0,0,1,1.29.18,3.16,3.16,0,0,1,1,.54,10.16,10.16,0,0,0-.73,2.24,17.58,17.58,0,0,0-.36,2.44,2.83,2.83,0,0,1-1.69.32q0-.89-0.12-1.43a3.54,3.54,0,0,0-.2-0.83,0.68,0.68,0,0,0-.28-0.36,0.9,0.9,0,0,0-.4-0.08,2,2,0,0,0-1.31.85A13.61,13.61,0,0,0,459,29.58,33,33,0,0,0,456.9,34a31.37,31.37,0,0,0-1.29,4.6l-0.69,3.59h-3.71Z"/><path class="cls-1" d="M475.05,23.33a4.7,4.7,0,0,1,2,.38,3,3,0,0,1,1.23,1,3.25,3.25,0,0,1,.52,1.43,5.35,5.35,0,0,1-.06,1.65,4.55,4.55,0,0,1-1.25,2.3,10.44,10.44,0,0,1-2.34,1.81,13.13,13.13,0,0,1-2.82,1.21,10.9,10.9,0,0,1-2.74.48,15.56,15.56,0,0,0-.1,2.1,7.43,7.43,0,0,0,.26,1.9,3.09,3.09,0,0,0,.77,1.37,2,2,0,0,0,1.45.52,4.74,4.74,0,0,0,2-.54,6.12,6.12,0,0,0,2-1.59,2.32,2.32,0,0,1,.85,1.17A12.19,12.19,0,0,1,475.52,40a11.23,11.23,0,0,1-1.69,1.29,9.56,9.56,0,0,1-1.88.91,5.76,5.76,0,0,1-1.94.34,3.89,3.89,0,0,1-2.64-.83A4.53,4.53,0,0,1,466,39.55a9.13,9.13,0,0,1-.34-3,21.33,21.33,0,0,1,.38-3.31,15.11,15.11,0,0,1,1.41-4.2,13.28,13.28,0,0,1,2.2-3.13A9.06,9.06,0,0,1,472.31,24,6.42,6.42,0,0,1,475.05,23.33Zm-5.28,8.79a8.87,8.87,0,0,0,2-.3,6.65,6.65,0,0,0,1.75-.75,4.78,4.78,0,0,0,1.31-1.17,3.62,3.62,0,0,0,.69-1.57,4,4,0,0,0,0-1,2.37,2.37,0,0,0-.26-0.91,1.87,1.87,0,0,0-.6-0.69,1.65,1.65,0,0,0-.95-0.26A2.9,2.9,0,0,0,471.48,27a10.67,10.67,0,0,0-1.55,4.2Z"/><path class="cls-1" d="M485.74,40.8a3,3,0,0,0,1.55-.42,1.8,1.8,0,0,0,.87-1.27,2.43,2.43,0,0,0-.28-1.67,7.29,7.29,0,0,0-1.21-1.55q-0.77-.77-1.67-1.59a12.23,12.23,0,0,1-1.63-1.82,8,8,0,0,1-1.13-2.18,5.37,5.37,0,0,1-.12-2.72,4.68,4.68,0,0,1,1.9-3.15,6.89,6.89,0,0,1,4.07-1.09,9.59,9.59,0,0,1,2.72.42A5.59,5.59,0,0,1,493.13,25a7.7,7.7,0,0,0-.62,1.88,17.61,17.61,0,0,0-.26,2.08,2.83,2.83,0,0,1-1.69.32,5.2,5.2,0,0,0-1-3.07,3,3,0,0,0-2.5-1.13,2.35,2.35,0,0,0-1.53.46,1.87,1.87,0,0,0-.69,1.15,2.24,2.24,0,0,0,.28,1.71A7.39,7.39,0,0,0,486.43,30q0.81,0.75,1.75,1.55a11.82,11.82,0,0,1,1.69,1.77A7.4,7.4,0,0,1,491,35.45a5.38,5.38,0,0,1,.12,2.72,4.94,4.94,0,0,1-2,3.23,7.12,7.12,0,0,1-4.24,1.13,8,8,0,0,1-3.17-.63,6.17,6.17,0,0,1-2.36-1.67,7.59,7.59,0,0,0,.63-2,21,21,0,0,0,.26-2.16,2.83,2.83,0,0,1,1.69-.32,5.65,5.65,0,0,0,.24,1.92A5.31,5.31,0,0,0,483,39.3a4,4,0,0,0,1.19,1.09A3,3,0,0,0,485.74,40.8Z"/><path class="cls-1" d="M508.5,36.24q-0.24,1.17-.36,1.86a4,4,0,0,0-.08,1,0.63,0.63,0,0,0,.22.48,0.9,0.9,0,0,0,.5.12,1.94,1.94,0,0,0,.93-0.26,8.29,8.29,0,0,0,1.29-.95,2.51,2.51,0,0,1,.44.58,4.48,4.48,0,0,1,.28.67,10.4,10.4,0,0,1-2.2,1.94,4.24,4.24,0,0,1-2.28.81,2.63,2.63,0,0,1-2-.67,2.83,2.83,0,0,1-.75-1.63,6,6,0,0,1,.12-2.06,10.94,10.94,0,0,1,.6-1.94h0a15.93,15.93,0,0,1-1.37,2.24,15.06,15.06,0,0,1-1.75,2A9,9,0,0,1,500,42a4.66,4.66,0,0,1-2.2.56,2.93,2.93,0,0,1-2.86-2q-0.85-2,0-6.49a16.73,16.73,0,0,1,1.49-4.3A13.13,13.13,0,0,1,499,26.35a11.15,11.15,0,0,1,3.19-2.22,8.83,8.83,0,0,1,3.73-.81,7.54,7.54,0,0,1,1.19.1,6,6,0,0,1,1.07.26,9.93,9.93,0,0,0,1.25-.08,3.26,3.26,0,0,0,1-.28,1,1,0,0,1,.3.24,1,1,0,0,1,.18.56,5.79,5.79,0,0,1,0,1.13,17.64,17.64,0,0,1-.36,1.94Zm-1.17-10.45a6.85,6.85,0,0,0-2.46-.4,4.74,4.74,0,0,0-2.22.5A5.42,5.42,0,0,0,501,27.28a8.18,8.18,0,0,0-1.23,2.14,14.47,14.47,0,0,0-.79,2.74,14.39,14.39,0,0,0-.38,5.26q0.34,1.84,1.55,1.84a2.5,2.5,0,0,0,1.39-.73,10.14,10.14,0,0,0,1.79-2.1,23.45,23.45,0,0,0,1.84-3.35,24.53,24.53,0,0,0,1.51-4.48Z"/><path class="cls-1" d="M519.83,40.51a2.78,2.78,0,0,1-.75,1.45,2.26,2.26,0,0,1-3.09-.18,2.17,2.17,0,0,1-.32-1.88,2.35,2.35,0,0,1,.79-1.35,2.17,2.17,0,0,1,1.47-.54,1.87,1.87,0,0,1,1.51.71A2.09,2.09,0,0,1,519.83,40.51Zm4.6-25.05q-0.44,1.57-1,3.67t-1.15,4.42q-0.58,2.32-1.17,4.78T520,33.09a3.12,3.12,0,0,1-1.77-.24q0.36-2.82.61-5.24t0.44-4.6q0.2-2.18.32-4.22t0.24-4.09q0.93-.2,2.14-0.58a11.78,11.78,0,0,0,1.9-.75,1,1,0,0,1,.69.67A3,3,0,0,1,524.43,15.46Z"/><path class="cls-1" d="M1027.2,24.32a10.42,10.42,0,0,1-3.27,1.23,5.18,5.18,0,0,0-3.76-1.6,5.08,5.08,0,0,0-5,6.23,14.71,14.71,0,0,1-10.62-5.3,5,5,0,0,0-.7,2.55,5.05,5.05,0,0,0,2.29,4.22,5.2,5.2,0,0,1-2.33-.63v0.06a5.1,5.1,0,0,0,4.14,5,5.25,5.25,0,0,1-2.33.09,5.15,5.15,0,0,0,4.82,3.52,10.45,10.45,0,0,1-6.4,2.17,10.7,10.7,0,0,1-1.23-.07,14.77,14.77,0,0,0,7.9,2.28,14.44,14.44,0,0,0,14.67-14.44c0-.22,0-0.44,0-0.66a10.37,10.37,0,0,0,2.57-2.63,10.39,10.39,0,0,1-3,.8A5.1,5.1,0,0,0,1027.2,24.32Z"/><path class="cls-1" d="M1051.89,22.58h-13.75a4.33,4.33,0,0,0-4.33,4.33V40.66a4.33,4.33,0,0,0,4.33,4.33h13.75a4.34,4.34,0,0,0,4.33-4.33V26.91A4.34,4.34,0,0,0,1051.89,22.58Zm1.24,2.58h0.49V29h-3.78v-3.8h3.3Zm-11.31,6.32a3.94,3.94,0,1,1-.75,2.3A3.94,3.94,0,0,1,1041.81,31.48ZM1054,40.66a2.15,2.15,0,0,1-2.15,2.15h-13.75a2.15,2.15,0,0,1-2.15-2.15V31.48h3.35a6.13,6.13,0,1,0,11.35,0H1054v9.17Z"/><path class="cls-2" d="M568.45,22.49h2.34l-1.68,8.31H578l1.68-8.31H582L578,42.17h-2.34l1.89-9.36h-8.88l-1.86,9.36h-2.34Z"/><path class="cls-2" d="M583.3,37.25a11.49,11.49,0,0,1,.66-3.93,10.62,10.62,0,0,1,1.77-3.18A8.73,8.73,0,0,1,588.25,28a6,6,0,0,1,2.94-.78,3.72,3.72,0,0,1,2.08.6,4.12,4.12,0,0,1,1.42,1.59h0.12l0.57-1.83h1.86l-2.91,14.58h-1.89L592.69,40h-0.12a8.67,8.67,0,0,1-2.37,1.83,5.77,5.77,0,0,1-2.7.69,3.8,3.8,0,0,1-3.06-1.35A5.94,5.94,0,0,1,583.3,37.25Zm5,3.36a4.69,4.69,0,0,0,2.33-.67,7.66,7.66,0,0,0,2.26-2.12l1.32-6.51a4.69,4.69,0,0,0-1.38-1.65,2.79,2.79,0,0,0-1.59-.51,3.88,3.88,0,0,0-2.1.65,6.51,6.51,0,0,0-1.8,1.73,9.33,9.33,0,0,0-1.71,5.37,4.5,4.5,0,0,0,.72,2.8A2.35,2.35,0,0,0,588.34,40.61Z"/><path class="cls-2" d="M599.56,38.63a5.62,5.62,0,0,0,1.65,1.54,4,4,0,0,0,2.1.58,3.54,3.54,0,0,0,1.18-.19,3.59,3.59,0,0,0,1-.52,2.44,2.44,0,0,0,.67-0.77,1.92,1.92,0,0,0,.24-0.94,1.89,1.89,0,0,0-.13-0.72,2.1,2.1,0,0,0-.44-0.65,4.33,4.33,0,0,0-.82-0.65q-0.53-.33-1.28-0.75a9.51,9.51,0,0,1-2.52-1.83,3.12,3.12,0,0,1-.81-2.16,3.9,3.9,0,0,1,.41-1.77,4.3,4.3,0,0,1,1.08-1.38,4.92,4.92,0,0,1,1.59-.88,5.9,5.9,0,0,1,1.93-.31,5.27,5.27,0,0,1,2.42.54,6.66,6.66,0,0,1,1.88,1.41l-1.32,1.29a6.55,6.55,0,0,0-1.32-1,3.34,3.34,0,0,0-1.71-.42,2.93,2.93,0,0,0-2,.68,2,2,0,0,0-.79,1.6,1.57,1.57,0,0,0,.21.81,2.51,2.51,0,0,0,.57.66,6,6,0,0,0,.83.57l1,0.54a12.79,12.79,0,0,1,1.63,1,6.31,6.31,0,0,1,1,1,3.13,3.13,0,0,1,.57,1,3.61,3.61,0,0,1,.17,1.11,4.23,4.23,0,0,1-.41,1.86A4.06,4.06,0,0,1,607,41.31a5.32,5.32,0,0,1-1.74.9,7.24,7.24,0,0,1-2.17.31,5.28,5.28,0,0,1-1.46-.21,6.65,6.65,0,0,1-1.41-.58,6.4,6.4,0,0,1-1.23-.88,5.36,5.36,0,0,1-.92-1.08Z"/><path class="cls-2" d="M615.49,20.81h2.31l-1.44,7-0.48,1.83H616a18.61,18.61,0,0,1,2.46-1.75,5,5,0,0,1,2.55-.71,3.27,3.27,0,0,1,2.66,1,4.07,4.07,0,0,1,.79,2.67,9.58,9.58,0,0,1,0,1,7.44,7.44,0,0,1-.2,1.05l-1.86,9.3h-2.28l1.8-9q0.12-.6.18-1a4.55,4.55,0,0,0,.06-0.75,2.45,2.45,0,0,0-.51-1.68,2.12,2.12,0,0,0-1.65-.57,3.87,3.87,0,0,0-1.93.63,13.05,13.05,0,0,0-2.45,2l-2.07,10.32h-2.28Z"/><path class="cls-2" d="M629.8,29.45h-2.13L628,27.74l2.28-.15,1.08-4h1.95l-0.81,4h3.69l-0.36,1.86h-3.75l-1.71,8.34a6.5,6.5,0,0,0-.09,1.08,2,2,0,0,0,.4,1.35,1.9,1.9,0,0,0,1.46.45,2.24,2.24,0,0,0,.81-0.15l0.72-.3,0.51,1.65a9,9,0,0,1-1.2.45,5.36,5.36,0,0,1-1.56.21,4.51,4.51,0,0,1-1.62-.25,3,3,0,0,1-1.08-.69,2.5,2.5,0,0,1-.6-1,4.31,4.31,0,0,1-.18-1.27,6.89,6.89,0,0,1,0-.83q0-.37.1-0.79Z"/><path class="cls-2" d="M636.46,37.25a11.49,11.49,0,0,1,.66-3.93,10.62,10.62,0,0,1,1.77-3.18A8.72,8.72,0,0,1,641.41,28a6,6,0,0,1,2.94-.78,3.72,3.72,0,0,1,2.08.6,4.14,4.14,0,0,1,1.42,1.59H648l0.57-1.83h1.86L647.5,42.17h-1.89L645.85,40h-0.12a8.67,8.67,0,0,1-2.37,1.83,5.77,5.77,0,0,1-2.7.69,3.8,3.8,0,0,1-3.06-1.35A5.94,5.94,0,0,1,636.46,37.25Zm5,3.36a4.68,4.68,0,0,0,2.33-.67,7.65,7.65,0,0,0,2.26-2.12l1.32-6.51A4.68,4.68,0,0,0,646,29.66a2.78,2.78,0,0,0-1.59-.51,3.89,3.89,0,0,0-2.1.65,6.54,6.54,0,0,0-1.8,1.73,9.33,9.33,0,0,0-1.71,5.37,4.51,4.51,0,0,0,.72,2.8A2.35,2.35,0,0,0,641.5,40.61Z"/><path class="cls-2" d="M666.34,27.59l-3.06,15.27a8,8,0,0,1-2.34,4.47,6.49,6.49,0,0,1-4.5,1.56,6.76,6.76,0,0,1-2.76-.57,10,10,0,0,1-2.34-1.44l1.08-1.59a9.08,9.08,0,0,0,1.86,1.23,5,5,0,0,0,2.25.51,3.91,3.91,0,0,0,3-1.19,6.92,6.92,0,0,0,1.59-3.17l0.72-3h-0.09a9.91,9.91,0,0,1-2.31,1.7,5.6,5.6,0,0,1-2.64.65,4,4,0,0,1-3-1.29,5.5,5.5,0,0,1-1.18-3.84,10.84,10.84,0,0,1,.64-3.77,10.33,10.33,0,0,1,1.73-3.06A8.51,8.51,0,0,1,657.41,28a5.89,5.89,0,0,1,2.87-.77,3.74,3.74,0,0,1,2.07.6,4.09,4.09,0,0,1,1.44,1.59h0.09l0.57-1.83h1.89ZM657.55,40.1a4.78,4.78,0,0,0,2.25-.65A7.73,7.73,0,0,0,662,37.55l1.29-6.24a5.44,5.44,0,0,0-1.41-1.65,2.64,2.64,0,0,0-1.56-.51,3.82,3.82,0,0,0-2,.62,6.18,6.18,0,0,0-1.74,1.65,8.79,8.79,0,0,0-1.2,2.37,8.61,8.61,0,0,0-.45,2.77,4.27,4.27,0,0,0,.69,2.67A2.31,2.31,0,0,0,657.55,40.1Z"/><path class="cls-2" d="M675.79,36.71h-2.22l0.72-3.06h2.46l1-3.06h-2.22l0.72-3.06h2.46l1.56-4.86H683l-1.56,4.86h2.7l1.56-4.86h2.76l-1.56,4.86h2.22l-0.72,3.06h-2.46l-1,3.06h2.22l-0.72,3.06H684l-1.74,5.46h-2.76l1.74-5.46h-2.7l-1.74,5.46H674Zm6.42-3.06,1-3.06h-2.7l-1,3.06h2.7Z"/><path class="cls-2" d="M693.25,22.67h6.24a13.58,13.58,0,0,1,2.71.25,6.8,6.8,0,0,1,2.14.79,4,4,0,0,1,1.41,1.4,3.94,3.94,0,0,1,.51,2.06,4.49,4.49,0,0,1-1.08,2.91A6.3,6.3,0,0,1,702.07,32l-0.06.12q3.3,0.81,3.3,3.54a6,6,0,0,1-.71,3,5.8,5.8,0,0,1-1.87,2A8.4,8.4,0,0,1,700,41.81a14.51,14.51,0,0,1-3.27.36h-7.38Zm3.84,15.84a4.33,4.33,0,0,0,2.7-.71,2.32,2.32,0,0,0,.9-1.93q0-2.16-2.64-2.16h-2.22l-1,4.8h2.22Zm1-8a3.74,3.74,0,0,0,2.5-.66,2.3,2.3,0,0,0,.73-1.8q0-1.68-2.64-1.68h-1.38l-0.84,4.14h1.62Z"/><path class="cls-2" d="M707.76,37a11.86,11.86,0,0,1,.66-4,11,11,0,0,1,1.77-3.24,8.6,8.6,0,0,1,2.55-2.17,6.13,6.13,0,0,1,3-.79,3.65,3.65,0,0,1,1.83.49,3.09,3.09,0,0,1,1.29,1.37h0.06l0.66-1.5h3.84l-3,15h-3.9V40.31h-0.06a7.48,7.48,0,0,1-2.21,1.63,5.3,5.3,0,0,1-2.29.58,3.69,3.69,0,0,1-3.09-1.42A6.54,6.54,0,0,1,707.76,37Zm6.36,1.62a2.89,2.89,0,0,0,1.32-.37,3.41,3.41,0,0,0,1.32-1.6l1-4.8A1.83,1.83,0,0,0,717,31a1.77,1.77,0,0,0-.88-0.27,2.17,2.17,0,0,0-1.26.42,3.92,3.92,0,0,0-1.06,1.17,6.74,6.74,0,0,0-.75,1.8,8.79,8.79,0,0,0-.29,2.31,3,3,0,0,0,.38,1.69A1.17,1.17,0,0,0,714.13,38.63Z"/><path class="cls-2" d="M726.85,27.17h3.9v1.92h0.12a13.8,13.8,0,0,1,2.29-1.59,5.45,5.45,0,0,1,2.69-.69,3.38,3.38,0,0,1,2.7,1,4.38,4.38,0,0,1,.84,2.92,10.56,10.56,0,0,1-.24,2.16l-1.86,9.3h-4.8l1.74-8.7q0.09-.42.17-0.73a2.54,2.54,0,0,0,.07-0.58,1.25,1.25,0,0,0-.33-0.94,1.3,1.3,0,0,0-.93-0.31,2.17,2.17,0,0,0-1.23.4,8.75,8.75,0,0,0-1.41,1.27l-1.86,9.6h-4.8Z"/><path class="cls-2" d="M752.59,25.67l0.84-4.38h4.8L754,42.17h-3.9V40.31h-0.06a7.49,7.49,0,0,1-2.21,1.63,5.31,5.31,0,0,1-2.29.58,3.69,3.69,0,0,1-3.09-1.42,6.54,6.54,0,0,1-1.11-4.1,11.83,11.83,0,0,1,.66-4,11,11,0,0,1,1.77-3.24,8.61,8.61,0,0,1,2.55-2.17,6.13,6.13,0,0,1,3-.79,3.26,3.26,0,0,1,1.71.45,3.16,3.16,0,0,1,1.17,1.23h0.06Zm-4.86,13a2.85,2.85,0,0,0,1.29-.37,3.56,3.56,0,0,0,1.35-1.6l1-4.8a1.83,1.83,0,0,0-.74-0.87,1.77,1.77,0,0,0-.88-0.27,2.16,2.16,0,0,0-1.26.42,3.93,3.93,0,0,0-1.07,1.17,6.8,6.8,0,0,0-.75,1.8,8.79,8.79,0,0,0-.29,2.31,3,3,0,0,0,.38,1.69A1.17,1.17,0,0,0,747.73,38.63Z"/><path class="cls-2" d="M764.35,26.69h-4.92l0.78-4h14.64l-0.78,4h-4.92l-3.06,15.48h-4.8Z"/><path class="cls-2" d="M782.91,29.45h-2.13l0.33-1.71,2.28-.15,1.08-4h2l-0.81,4h3.69l-0.36,1.86h-3.75l-1.71,8.34a6.6,6.6,0,0,0-.09,1.08,2,2,0,0,0,.41,1.35,1.9,1.9,0,0,0,1.45.45,2.24,2.24,0,0,0,.81-0.15l0.72-.3,0.51,1.65a9,9,0,0,1-1.2.45,5.37,5.37,0,0,1-1.56.21,4.52,4.52,0,0,1-1.62-.25,3,3,0,0,1-1.08-.69,2.5,2.5,0,0,1-.6-1,4.31,4.31,0,0,1-.18-1.27,6.91,6.91,0,0,1,0-.83q0-.37.1-0.79Z"/><path class="cls-2" d="M794.76,42.53A4.84,4.84,0,0,1,791,41a6.16,6.16,0,0,1-1.41-4.29,10.65,10.65,0,0,1,.66-3.81,9.48,9.48,0,0,1,1.77-3,8.4,8.4,0,0,1,2.52-1.95,6.43,6.43,0,0,1,2.91-.71,4.89,4.89,0,0,1,3.79,1.56,6.13,6.13,0,0,1,1.42,4.29,10.44,10.44,0,0,1-.67,3.81,9.87,9.87,0,0,1-1.77,3,8.15,8.15,0,0,1-2.52,1.95A6.53,6.53,0,0,1,794.76,42.53Zm2.43-13.41a3.71,3.71,0,0,0-2,.58,6.09,6.09,0,0,0-1.71,1.59,8.31,8.31,0,0,0-1.2,2.35,9.05,9.05,0,0,0-.45,2.88,5,5,0,0,0,.79,3,2.73,2.73,0,0,0,2.32,1,3.69,3.69,0,0,0,2-.58,6.28,6.28,0,0,0,1.69-1.58,8.05,8.05,0,0,0,1.2-2.34,9.05,9.05,0,0,0,.45-2.88,5,5,0,0,0-.79-3A2.72,2.72,0,0,0,797.19,29.12Z"/><path class="cls-2" d="M810.93,38.63a5.63,5.63,0,0,0,1.65,1.54,4,4,0,0,0,2.1.58,3.54,3.54,0,0,0,1.18-.19,3.59,3.59,0,0,0,1-.52,2.44,2.44,0,0,0,.67-0.77,1.92,1.92,0,0,0,.24-0.94,1.89,1.89,0,0,0-.13-0.72A2.11,2.11,0,0,0,817.2,37a4.34,4.34,0,0,0-.83-0.65q-0.52-.33-1.27-0.75a9.52,9.52,0,0,1-2.52-1.83,3.12,3.12,0,0,1-.81-2.16,3.9,3.9,0,0,1,.41-1.77,4.31,4.31,0,0,1,1.08-1.38,4.93,4.93,0,0,1,1.59-.88,5.9,5.9,0,0,1,1.93-.31,5.27,5.27,0,0,1,2.42.54,6.66,6.66,0,0,1,1.88,1.41l-1.32,1.29a6.54,6.54,0,0,0-1.32-1,3.34,3.34,0,0,0-1.71-.42,2.93,2.93,0,0,0-2,.68,2,2,0,0,0-.79,1.6,1.58,1.58,0,0,0,.21.81,2.5,2.5,0,0,0,.57.66,6,6,0,0,0,.83.57l1,0.54a12.74,12.74,0,0,1,1.64,1,6.35,6.35,0,0,1,1,1,3.11,3.11,0,0,1,.57,1A3.58,3.58,0,0,1,820,38a4.23,4.23,0,0,1-.4,1.86,4.05,4.05,0,0,1-1.14,1.42,5.32,5.32,0,0,1-1.74.9,7.25,7.25,0,0,1-2.18.31,5.3,5.3,0,0,1-1.46-.21,6.62,6.62,0,0,1-1.41-.58,6.4,6.4,0,0,1-1.23-.88,5.36,5.36,0,0,1-.92-1.08Z"/><path class="cls-2" d="M826.86,20.81h2.31l-1.44,7-0.48,1.83h0.12a18.54,18.54,0,0,1,2.46-1.75,5,5,0,0,1,2.55-.71,3.27,3.27,0,0,1,2.66,1,4.07,4.07,0,0,1,.79,2.67c0,0.34,0,.66,0,1a7.58,7.58,0,0,1-.2,1.05l-1.86,9.3h-2.28l1.8-9q0.12-.6.18-1a4.55,4.55,0,0,0,.06-0.75,2.45,2.45,0,0,0-.51-1.68,2.11,2.11,0,0,0-1.65-.57,3.88,3.88,0,0,0-1.94.63,13.05,13.05,0,0,0-2.44,2l-2.07,10.32H822.6Z"/><path class="cls-2" d="M843.6,42.53A4.84,4.84,0,0,1,839.82,41a6.16,6.16,0,0,1-1.41-4.29,10.65,10.65,0,0,1,.66-3.81,9.48,9.48,0,0,1,1.77-3,8.4,8.4,0,0,1,2.52-1.95,6.43,6.43,0,0,1,2.91-.71,4.89,4.89,0,0,1,3.79,1.56,6.13,6.13,0,0,1,1.42,4.29,10.44,10.44,0,0,1-.67,3.81,9.87,9.87,0,0,1-1.77,3,8.15,8.15,0,0,1-2.52,1.95A6.53,6.53,0,0,1,843.6,42.53ZM846,29.12a3.71,3.71,0,0,0-2,.58,6.09,6.09,0,0,0-1.71,1.59,8.31,8.31,0,0,0-1.2,2.35,9.05,9.05,0,0,0-.45,2.88,5,5,0,0,0,.79,3,2.73,2.73,0,0,0,2.32,1,3.69,3.69,0,0,0,2-.58,6.28,6.28,0,0,0,1.69-1.58,8.05,8.05,0,0,0,1.2-2.34,9.05,9.05,0,0,0,.45-2.88,5,5,0,0,0-.79-3A2.72,2.72,0,0,0,846,29.12Z"/><path class="cls-2" d="M854.58,27.59h2.28l0.48,8.58q0,1.05,0,2.06t0,2h0.12q0.45-1,.85-2t0.88-2.06l3.84-8.58h2.25l0.51,8.58q0.06,1.05.08,2.06t0.07,2h0.12q0.42-1,.81-2t0.87-2.06l3.81-8.58h2.16l-6.63,14.58h-2.85l-0.42-8q0-1,0-2.13t0-2.16H863.7q-0.45,1.08-.88,2.16t-0.88,2.13l-3.54,8h-2.76Z"/><path class="cls-2" d="M879.42,46.58a3,3,0,0,0,2.08-.9,8.12,8.12,0,0,0,1.73-2.43l0.54-1.05-2.49-14.61h2.28l1.14,8.19q0.15,1,.27,2.15t0.21,2.21h0.12L886.37,38q0.56-1.12,1.09-2.18l4.2-8.19h2.28L885.36,43.4a19.88,19.88,0,0,1-1.2,2A9.31,9.31,0,0,1,882.8,47a6,6,0,0,1-1.6,1.06,4.65,4.65,0,0,1-1.92.39,4.28,4.28,0,0,1-.79-0.09,2.89,2.89,0,0,1-.89-0.33l0.75-1.71A2.4,2.4,0,0,0,879.42,46.58Z"/><path class="cls-2" d="M899.13,42.53A4.84,4.84,0,0,1,895.35,41a6.16,6.16,0,0,1-1.41-4.29,10.65,10.65,0,0,1,.66-3.81,9.48,9.48,0,0,1,1.77-3,8.4,8.4,0,0,1,2.52-1.95,6.43,6.43,0,0,1,2.91-.71,4.89,4.89,0,0,1,3.79,1.56A6.13,6.13,0,0,1,907,33.08a10.44,10.44,0,0,1-.67,3.81,9.87,9.87,0,0,1-1.77,3,8.15,8.15,0,0,1-2.52,1.95A6.53,6.53,0,0,1,899.13,42.53Zm2.43-13.41a3.71,3.71,0,0,0-2,.58,6.09,6.09,0,0,0-1.71,1.59,8.31,8.31,0,0,0-1.2,2.35,9.05,9.05,0,0,0-.45,2.88,5,5,0,0,0,.79,3,2.73,2.73,0,0,0,2.32,1,3.69,3.69,0,0,0,2-.58A6.28,6.28,0,0,0,903,38.45a8.05,8.05,0,0,0,1.2-2.34,9.05,9.05,0,0,0,.45-2.88,5,5,0,0,0-.79-3A2.72,2.72,0,0,0,901.56,29.12Z"/><path class="cls-2" d="M920.16,42.17h-1.89l0.24-2.22h-0.12a18.11,18.11,0,0,1-2.45,1.82,4.89,4.89,0,0,1-2.59.76,3.24,3.24,0,0,1-2.66-1,4.08,4.08,0,0,1-.79-2.65c0-.34,0-0.66,0-1a7.44,7.44,0,0,1,.2-1l1.86-9.3h2.31l-1.83,9q-0.12.6-.18,1a4.56,4.56,0,0,0-.06.75,2.44,2.44,0,0,0,.51,1.68,2.11,2.11,0,0,0,1.65.57,3.8,3.8,0,0,0,1.92-.63,12.7,12.7,0,0,0,2.4-2l2.07-10.32h2.28Z"/><path class="cls-2" d="M927.87,27.59h1.89l-0.33,2.79h0.12a9,9,0,0,1,2-2.25,4,4,0,0,1,2.5-.9,3.47,3.47,0,0,1,1.38.27l-0.81,2a2.83,2.83,0,0,0-1.26-.24,3.55,3.55,0,0,0-2.22.93A8.49,8.49,0,0,0,929.1,33l-1.83,9.21H925Z"/><path class="cls-2" d="M945.27,20.81h2.31L943.83,39.5a1.64,1.64,0,0,0-.06.36v0.21a0.46,0.46,0,0,0,.51.54l0.18,0,0.3-.07,0,1.77a3.3,3.3,0,0,1-.63.18,4.63,4.63,0,0,1-.81.06A2,2,0,0,1,941.9,42a1.89,1.89,0,0,1-.5-1.4,5.88,5.88,0,0,1,.18-1.26Z"/><path class="cls-2" d="M953.88,42.53A4.84,4.84,0,0,1,950.1,41a6.16,6.16,0,0,1-1.41-4.29,10.65,10.65,0,0,1,.66-3.81,9.48,9.48,0,0,1,1.77-3,8.4,8.4,0,0,1,2.52-1.95,6.43,6.43,0,0,1,2.91-.71,4.89,4.89,0,0,1,3.79,1.56,6.13,6.13,0,0,1,1.42,4.29,10.44,10.44,0,0,1-.67,3.81,9.87,9.87,0,0,1-1.77,3,8.15,8.15,0,0,1-2.52,1.95A6.53,6.53,0,0,1,953.88,42.53Zm2.43-13.41a3.71,3.71,0,0,0-2,.58,6.09,6.09,0,0,0-1.71,1.59,8.31,8.31,0,0,0-1.2,2.35,9.05,9.05,0,0,0-.45,2.88,5,5,0,0,0,.79,3,2.73,2.73,0,0,0,2.32,1,3.69,3.69,0,0,0,2-.58,6.28,6.28,0,0,0,1.69-1.58,8.05,8.05,0,0,0,1.2-2.34,9.05,9.05,0,0,0,.45-2.88,5,5,0,0,0-.79-3A2.72,2.72,0,0,0,956.31,29.12Z"/><path class="cls-2" d="M964.41,27.59h2.28L967.77,36q0.12,1.05.21,2.17t0.21,2.18h0.12q0.51-1.08,1-2.18T970.47,36l4.29-8.43h2.31L969.3,42.17h-2.76Z"/><path class="cls-2" d="M977.07,36.44a9.86,9.86,0,0,1,2.47-6.67A7.85,7.85,0,0,1,982,27.89a6.57,6.57,0,0,1,2.83-.66,4.85,4.85,0,0,1,2.08.4,3.74,3.74,0,0,1,1.39,1.11,4.49,4.49,0,0,1,.78,1.68,8.7,8.7,0,0,1,.24,2.08,7.37,7.37,0,0,1-.18,1.65,11.51,11.51,0,0,1-.33,1.2h-9.48a6.43,6.43,0,0,0,0,2.42,4,4,0,0,0,.79,1.67,3.21,3.21,0,0,0,1.37,1,5,5,0,0,0,1.77.3,4.26,4.26,0,0,0,1.73-.37,8,8,0,0,0,1.54-.88l0.9,1.53a9.16,9.16,0,0,1-2.07,1.1,7.25,7.25,0,0,1-2.64.46A5.61,5.61,0,0,1,978.63,41,6.14,6.14,0,0,1,977.07,36.44Zm10.2-2.64q0.06-.36.11-0.72a6.26,6.26,0,0,0,0-.78,4.85,4.85,0,0,0-.15-1.21,3,3,0,0,0-.48-1,2.37,2.37,0,0,0-.87-0.72,2.93,2.93,0,0,0-1.32-.27,3.93,3.93,0,0,0-1.57.33,4.83,4.83,0,0,0-1.43,1,7.2,7.2,0,0,0-1.18,1.5,7,7,0,0,0-.79,1.95h7.65Z"/><line class="cls-3" x1="544.47" y1="7.19" x2="544.47" y2="54.42"/></svg>